<?xml version="1.0" standalone="no"?><!DOCTYPE svg PUBLIC "-//W3C//DTD SVG 1.1//EN" "http://www.w3.org/Graphics/SVG/1.1/DTD/svg11.dtd"><svg width="24.28125" height="24" viewBox="0 0 24.28125 24" version="1.1" xmlns="http://www.w3.org/2000/svg" xmlns:xlink="http://www.w3.org/1999/xlink"><defs><style type="text/css"><![CDATA[

]]></style></defs><g class="transform-group"><g transform="scale(0.0234375, 0.0234375)"><path d="M967.460547 546.110294 586.925143 546.110294 586.925143 954.949983C586.925143 993.069187 555.99433 1024 517.875127 1024 479.721363 1024 448.82511 993.069187 448.82511 954.949983L448.82511 546.110294 68.255147 546.110294C30.550658 546.110294 0 515.559636 0 477.855147 0 440.150658 30.550658 409.6 68.255147 409.6L448.82511 409.6 448.82511 69.050017C448.82511 30.930813 479.721363 0 517.875127 0 555.99433 0 586.925143 30.930813 586.925143 69.050017L586.925143 409.6 967.460547 409.6C1005.165035 409.6 1035.750253 440.150658 1035.750253 477.855147 1035.750253 515.559636 1005.165035 546.110294 967.460547 546.110294Z" fill="#272636"></path></g></g></svg>